<svg height="200px" id="Layer_1" viewBox="0 0 200 200" width="200px" xml:space="preserve" xmlns="http://www.w3.org/2000/svg" xmlns:xlink="http://www.w3.org/1999/xlink">
	<path d="M100.003,62.5c-24.815,0-45.001,20.187-45.001,45c0,24.813,20.186,45.001,45.001,45.001  c24.812,0,44.998-20.188,44.998-45.001C145.001,82.687,124.815,62.5,100.003,62.5z M100.003,142.5  c-19.333,0-35.002-15.67-35.002-35.001c0-19.33,15.67-35,35.002-35c19.328,0,34.998,15.67,34.998,35  C135.001,126.83,119.331,142.5,100.003,142.5z M178,42H22.003C15.107,42,9.5,47.608,9.5,54.5V67.5H22.5  c1.793,0,3.583,0.683,4.952,2.051c1.366,1.364,2.049,3.158,2.049,4.948v66c0,1.791-0.683,3.585-2.049,4.949  c-1.368,1.366-3.158,2.051-4.952,2.051H9.5v13c0,6.891,5.606,12.501,12.503,12.501H178c6.894,0,12.501-5.61,12.501-12.501v-106  C190.501,47.608,184.894,42,178,42z M100.003,157.5C72.387,157.5,50,135.114,50,107.499c0-27.614,22.387-50,50.003-50  c27.612,0,49.997,22.387,49.997,50C150,135.114,127.615,157.5,100.003,157.5z M168.907,69.688c-3.366,0-6.094-2.729-6.094-6.094  c0-3.364,2.728-6.095,6.094-6.095c3.363,0,6.094,2.731,6.094,6.095C175.001,66.958,172.271,69.688,168.907,69.688z M178,32.5  h-12.166V28c0-0.768-0.293-1.536-0.879-2.122c-0.584-0.586-1.354-0.879-2.122-0.879h-14c-0.768,0-1.535,0.293-2.122,0.879  c-0.582,0.586-0.877,1.354-0.877,2.122v4.5h-15.585l-7.923-11.882c-0.615-0.93-1.463-1.725-2.521-2.29  c-1.052-0.563-2.186-0.828-3.301-0.828H83.998c-1.119,0-2.25,0.265-3.303,0.828c-1.054,0.565-1.901,1.359-2.524,2.29L70.25,32.5  H54.166V28c0-0.768-0.292-1.536-0.877-2.122c-0.588-0.586-1.352-0.879-2.122-0.879h-14c-0.766,0-1.534,0.293-2.122,0.879  c-0.584,0.586-0.877,1.354-0.877,2.122v4.5H22.003C9.899,32.5,0,42.399,0,54.5v106c0,12.101,9.899,22,22.003,22H178  c12.103,0,22-9.899,22-22v-106C200,42.399,190.103,32.5,178,32.5z M193.001,160.5c0,8.271-6.729,14.999-15.001,14.999H22.003  c-8.273,0-15.002-6.728-15.002-14.999v-106c0-8.27,6.729-14.999,15.002-14.999H178c8.271,0,15.001,6.729,15.001,14.999V160.5z" fill="rgb(100,200,200)"/>
  <rect x="10" y="10" height="50" width="50" fill="#6d75ce" />
	<circle cx="35" cy="100" r="25" />
	<text x="150" y="20">Ciao!</text>
</svg>